# xmcd
#
# Track frame offsets: 
#        150
#        14700
#        30062
#        40165
#        52877
#        72550
#        87502
#        108870
#        120327
#        137465
#        167187
#        192770
#
# Disc length: 3291 seconds
#
# Revision: 5
# Processed by: cddbd v1.5.2PL0 Copyright (c) Steve Scherf et al.
# Submitted via: ExactAudioCopy v0.90b4
#
DISCID=940cd90c
DTITLE=Vidar Busk and His True Believers - I Came Here To Rock
DYEAR=1998
DGENRE=Blues
TTITLE0=I Came Here To Rock
TTITLE1=24/7
TTITLE2=Letter To My Girlfriend
TTITLE3=Mr. Sugar
TTITLE4=Get Up Baby
TTITLE5=Sweet Thing
TTITLE6=Groovy Gravy (One for Bill)
TTITLE7=One Eye Open
TTITLE8=She's Crazy 'Bout Men
TTITLE9=Lovestruck
TTITLE10=Hard Times
TTITLE11=One Way Ticket Man
EXTD=
EXTT0=
EXTT1=
EXTT2=
EXTT3=
EXTT4=
EXTT5=
EXTT6=
EXTT7=
EXTT8=
EXTT9=
EXTT10=
EXTT11=
PLAYORDER=
